<svg id="Capa_1" data-name="Capa 1" xmlns="http://www.w3.org/2000/svg" viewBox="0 0 512 512"><defs><style>.cls-1{fill:#003d6c;}</style></defs><g id="Outline"><path class="cls-1" d="M418.13,132.27a12.8,12.8,0,1,1-12.8-12.8A12.8,12.8,0,0,1,418.13,132.27ZM375.47,179.2a8.55,8.55,0,0,1-8.54-8.53H349.87a25.6,25.6,0,1,0,51.2,0H384A8.54,8.54,0,0,1,375.47,179.2Zm-264.54,64A12.8,12.8,0,1,0,98.13,256h0A12.81,12.81,0,0,0,110.93,243.2Zm85.34,243.2v17.07a8.53,8.53,0,0,1-8.54,8.53H76.8a8.54,8.54,0,0,1-7.46-4.39l-42.67-76.8,14.92-8.29,40.23,72.41H179.2V486.4a17.09,17.09,0,0,0-17.07-17.07H102.4a8.52,8.52,0,0,1-7.63-4.71L60.63,396.35l15.27-7.63,31.77,63.55h19.51l.82-1.83V395.38A25.77,25.77,0,0,0,122.88,380L106.67,358.4H17.07V512H0V238.93a50.84,50.84,0,0,1,4.27-20.48l15.63,6.83a33.93,33.93,0,0,0-2.83,13.65v51.2a17.07,17.07,0,1,0,34.13,0V247.47H68.27v42.66a33.88,33.88,0,0,1-4.6,17.07H111a42.37,42.37,0,0,1-8.56-25.6h17.07a25.62,25.62,0,0,0,25.6,25.6h17.06a25.63,25.63,0,0,0,25.6-25.6V264.53H179.2a8.53,8.53,0,0,1-8.53-8.53v-8.53h-25.6a8.55,8.55,0,0,1-7.93-5.37l-6.33-15.84a34,34,0,0,0-31.7-21.46H51.2a33.86,33.86,0,0,0-20.48,6.83L20.47,198A50.83,50.83,0,0,1,51.2,187.73H99.11a51,51,0,0,1,47.54,32.19l4.19,10.48h45.43a8.53,8.53,0,0,1,8.53,8.53V281.6a42.72,42.72,0,0,1-42.67,42.67H119.47V347l17.06,22.76a43,43,0,0,1,8.54,25.6v56.89h17.06A34.17,34.17,0,0,1,196.27,486.4ZM102.4,324.27H17.07v17.06H102.4ZM512,102.4V247.47a8.53,8.53,0,0,1-8.53,8.53A59.58,59.58,0,0,1,458,235a85.52,85.52,0,0,1-27.12,43.17l14.48,3.62,30,4.29A42.86,42.86,0,0,1,512,328.27V469.33A42.72,42.72,0,0,1,469.33,512H247.47a8.53,8.53,0,0,1-8.54-8.53V492.75a91.84,91.84,0,0,1-7.89-7,88.92,88.92,0,0,1-23.74-42.3l-1.3.19a8.54,8.54,0,0,1-9.65-7.25,9.67,9.67,0,0,1-.08-1.2v-6.14L172.74,435a8.55,8.55,0,0,1-10.61-8.28V366.93a8.52,8.52,0,0,1,10.61-8.27l33.11,8.27h67.22a8.3,8.3,0,0,1,2.42.36l91.44,27.09V353.74l-62.4-54.6L278,302.93a25.71,25.71,0,0,0-22,25.34v21.6H238.93v-21.6A42.86,42.86,0,0,1,275.56,286l30-4.29L320,278.13a85.17,85.17,0,0,1-29.9-64.8v-54.2c-1.72.78-3.43,1.57-5.17,2.31a8.52,8.52,0,0,1-11.2-4.48,8.42,8.42,0,0,1-.69-3.36V93.87a93.59,93.59,0,0,1,14.29-49.82l14.46,9.07a76.66,76.66,0,0,0-11.69,40.75v46.4A242.4,242.4,0,0,0,320,122.76a13,13,0,0,1,2.55-1.8,243.74,243.74,0,0,0,52-49.49L394.33,46A8.53,8.53,0,0,1,409,48l2.89,7.24a91.75,91.75,0,0,0,42.45,47.13h6.47V93.87A76.88,76.88,0,0,0,384,17.07H366.93a76.36,76.36,0,0,0-53.76,22L301.23,26.83A93.33,93.33,0,0,1,366.93,0H384a94,94,0,0,1,93.87,93.87V107a34.13,34.13,0,0,1-17.07,63.68v25.6a42.74,42.74,0,0,0,34.13,41.81V102.4A42.42,42.42,0,0,0,478.4,68.67l10.46-13.48A59.35,59.35,0,0,1,512,102.4Zm-51.2,51.2a17.07,17.07,0,1,0,0-34.13ZM196.27,382.13l-17.07-4.27v37.88l17.07-4.27ZM332.8,266.57V236a85.35,85.35,0,0,1-25.6-22.58A68.18,68.18,0,0,0,332.8,266.57Zm34.13,64.49V298.24a84.79,84.79,0,0,1-27.51-7.58,16.41,16.41,0,0,1-2.48.83l-11.84,3Zm34.14-56.13V243.56a85.81,85.81,0,0,1-51.2,0v31.37c0,.55,0,1.1-.09,1.64a68.06,68.06,0,0,0,51.37,0c0-.54-.08-1.09-.08-1.64ZM384,298.24v32.82l41.84-36.61-11.85-3a18.56,18.56,0,0,1-2.48-.84A84.49,84.49,0,0,1,384,298.24ZM238.93,438.94,224.28,441a71.76,71.76,0,0,0,14.65,28.1Zm51.2,24.87a77.76,77.76,0,0,1-11.85-21.6l-15-6.75L256,436.51v47.43a71.88,71.88,0,0,0,34.13,10.86Zm56.32,9.08L304,453.77c.4.51.8,1,1.23,1.54a8.55,8.55,0,0,1,2,5.49v33A72.87,72.87,0,0,0,346.45,472.89Zm20.48,9.21-4.13-1.86a89.09,89.09,0,0,1-15.86,14.69h20Zm28.51,12.83L384,489.78v5.15Zm99.49-44.82L271.83,384h-58.5v41.36l50-7.15a8.57,8.57,0,0,1,4.71.67l169,76.05h32.3a25.62,25.62,0,0,0,25.6-25.6Zm0-40.51H476.79a75.72,75.72,0,0,1-.38,17.22l18.52,5.49ZM384,353.74v45.7l75.78,22.45a57.17,57.17,0,0,0-1.33-18.8,54.39,54.39,0,0,0-6-14.75l14.69-8.68a70.83,70.83,0,0,1,6,12.87h21.83V328.27a25.71,25.71,0,0,0-22-25.34l-26.56-3.79Zm59.73-140.28A85.35,85.35,0,0,1,418.13,236v30.53A68.15,68.15,0,0,0,443.73,213.46Zm0-97.41A108.82,108.82,0,0,1,398.83,68L388,81.94a260.31,260.31,0,0,1-47.15,46.77,12.78,12.78,0,0,1-19.88,13.84q-6.74,4.24-13.74,8.08v11.5a68.27,68.27,0,1,0,136.53,0ZM332.8,358.4v17.07h17.07V358.4Z"/></g></svg>