<svg id="Capa_1" data-name="Capa 1" xmlns="http://www.w3.org/2000/svg" viewBox="0 0 512 512"><defs><style>.cls-1{fill:#003d6c;}</style></defs><path class="cls-1" d="M12.5,125.22H47.05v34.37a12.5,12.5,0,0,0,12.5,12.5H100a12.51,12.51,0,0,0,12.5-12.5V125.22h34.54a12.5,12.5,0,0,0,12.5-12.5V72.43a12.5,12.5,0,0,0-12.5-12.5H112.54V25.55A12.52,12.52,0,0,0,100,13.05H59.55a12.51,12.51,0,0,0-12.5,12.5V59.93H12.5A12.51,12.51,0,0,0,0,72.43v40.29A12.51,12.51,0,0,0,12.5,125.22ZM15,74.93H49.55a12.52,12.52,0,0,0,12.5-12.5V28.05H97.54V62.43A12.51,12.51,0,0,0,110,74.93h34.54v35.29H110a12.51,12.51,0,0,0-12.5,12.5v34.37H62.05V122.72a12.52,12.52,0,0,0-12.5-12.5H15Z"/><path class="cls-1" d="M268.37,125.58a7.5,7.5,0,0,0-7.5,7.5v18.39a7.5,7.5,0,1,0,15,0V133.08A7.5,7.5,0,0,0,268.37,125.58Z"/><path class="cls-1" d="M415.2,338c-35.07,0-63.61,28.74-63.61,64.07a64.16,64.16,0,0,0,6.41,28c-.47.21-.94.43-1.4.66H314.74V344.43a7.5,7.5,0,0,0-15,0V474.92h-85a34.41,34.41,0,0,1,34.2-34h14a7.5,7.5,0,0,0,7.5-7.5V233.76h19.66a74,74,0,0,0,53.27-22.64l14.07,58.53a7.51,7.51,0,0,0,7.29,5.75,7,7,0,0,0,1.75-.21,7.49,7.49,0,0,0,5.54-9l-1.81-7.54a185.56,185.56,0,0,1,18.05,13.17,7.5,7.5,0,0,0,9.55-11.57,187.53,187.53,0,0,0-32.45-21.77l-10.33-43a75.29,75.29,0,0,0,3.88-65.53,63.42,63.42,0,0,0-14.21-67.62,62.45,62.45,0,0,0-33.4-17.58,7.5,7.5,0,0,0-6.88,2.33A62.91,62.91,0,0,0,295,60.51a62.42,62.42,0,0,0-31.52-15.77,7.5,7.5,0,0,0-6.88,2.33,63.47,63.47,0,0,0-15.38,55,75.36,75.36,0,0,0-21.79,32.62h-8.33a49.54,49.54,0,0,0-8.41.74,21,21,0,0,0-13.09-4.59H175.3A21.3,21.3,0,0,0,164,170.1a49.56,49.56,0,0,0,47.15,63.66H255.4V425.89h-6.5a49.43,49.43,0,0,0-49.19,49h-8.84v-.06a12.5,12.5,0,0,0-12.16-12.49V416a7.5,7.5,0,0,0-15,0v48.85a12.51,12.51,0,0,0,12.16,12.5V484H153.05V419.64a7.5,7.5,0,0,0-15,0v55.27h-1.46v-.06a12.52,12.52,0,0,0-11.19-12.43V419.64a7.5,7.5,0,0,0-15,0v45.21a12.52,12.52,0,0,0,11.19,12.43V484H99.74V419.64a7.5,7.5,0,0,0-15,0v55.27H55.07c1.41-54.71,18-90.16,31.8-110.36,2.87-4.21,5.75-7.94,8.53-11.26a73.34,73.34,0,0,0,45.33,15.32,75.54,75.54,0,0,0,23-3.55V380a7.5,7.5,0,0,0,15,0V358.34c18.71-11.12,31.09-30.2,31.09-51.83a56,56,0,0,0-.88-9.83,50.63,50.63,0,0,0,11.49-48.93,10.65,10.65,0,0,0-7.16-7.16,50.69,50.69,0,0,0-14.41-2.09,50.13,50.13,0,0,0-31.22,10.8,76.12,76.12,0,0,0-53.74,0,50.58,50.58,0,0,0-45.63-8.71,10.58,10.58,0,0,0-7.17,7.17,50.63,50.63,0,0,0,11.48,48.92,56.92,56.92,0,0,0-.87,9.82,57.66,57.66,0,0,0,13,36.24,152.49,152.49,0,0,0-10.23,13.35A184.64,184.64,0,0,0,51.7,403.31,97.13,97.13,0,0,1,67,348.05a17.37,17.37,0,1,0-29.25-18.73,132.1,132.1,0,0,0,2.19,145.59H7.5a7.5,7.5,0,0,0,0,15H85.24a12.52,12.52,0,0,0,12,9h26.85a12.51,12.51,0,0,0,12-9h2.46a12.51,12.51,0,0,0,12,9h27.82a12.52,12.52,0,0,0,12-9H396a7.5,7.5,0,0,0,0-15H343.71a34.64,34.64,0,0,1,27-33.25,7.5,7.5,0,0,0,4.58-11.58,49.12,49.12,0,0,1-8.69-28c0-27,21.81-49.07,48.61-49.07a7.5,7.5,0,1,0,0-15ZM265,60.44a47.64,47.64,0,0,1,21.27,12.44q1.62,1.65,3.07,3.41a63.81,63.81,0,0,0-1.17,7.39,73.63,73.63,0,0,0-33,8.76A48.47,48.47,0,0,1,265,60.44Zm-89.7,98a6.3,6.3,0,0,1,0-12.59h14.34a6.3,6.3,0,0,1,0,12.59Zm35.84,60.33a34.51,34.51,0,0,1-32.46-45.33h11a21.27,21.27,0,0,0,21.18-21.3,21.57,21.57,0,0,0-.15-2.43l.47,0h5a76.79,76.79,0,0,0-.54,9,75.2,75.2,0,0,0,29.88,60.07H211.14Zm19.41-60.06c0-32.58,25.84-59.17,57.92-60A63.3,63.3,0,0,0,297.71,124a7.5,7.5,0,1,0,12.67-8,48.77,48.77,0,0,1,2.37-55.49A47.52,47.52,0,0,1,334,72.88a48.54,48.54,0,0,1,8.6,56.74,7.49,7.49,0,0,0,3.19,10.11,7.64,7.64,0,0,0,.83.38,59.81,59.81,0,0,1,3,18.59c0,33.12-26.7,60.06-59.52,60.06S230.55,191.82,230.55,158.7Zm-31.72,94.8a35.26,35.26,0,0,1,7.8.87,35.58,35.58,0,0,1-3.69,25.19,64.37,64.37,0,0,0-20.14-22.25A35.34,35.34,0,0,1,198.83,253.5Zm-58.1,5.91c29.81,0,54.06,21.13,54.06,47.1s-24.25,47.1-54.06,47.1-54-21.13-54-47.1S110.93,259.41,140.73,259.41Zm-62.2,20.15a35.58,35.58,0,0,1-3.69-25.19,35.55,35.55,0,0,1,23.83,2.94A64.37,64.37,0,0,0,78.53,279.56ZM42,448a117.16,117.16,0,0,1,8.34-110.6,2.37,2.37,0,0,1,2-1.1,2.3,2.3,0,0,1,1.26.38,2.35,2.35,0,0,1,.72,3.27,112.41,112.41,0,0,0-11,98.63Q42.58,443.2,42,448Zm286.7,26.91h-14V445.8h23.84A49.66,49.66,0,0,0,328.71,474.92Z"/><path class="cls-1" d="M122,306.5a7.5,7.5,0,0,0,7.5-7.5v-8.54a7.5,7.5,0,1,0-15,0V299A7.5,7.5,0,0,0,122,306.5Z"/><path class="cls-1" d="M159.49,306.5A7.5,7.5,0,0,0,167,299v-8.54a7.5,7.5,0,0,0-15,0V299A7.5,7.5,0,0,0,159.49,306.5Z"/><path class="cls-1" d="M129.71,339.52a19.94,19.94,0,0,0,11-3.31,20,20,0,0,0,31-16.66,7.5,7.5,0,0,0-15,0,5,5,0,0,1-9.37,2.32,7.5,7.5,0,0,0-13.25,0,5,5,0,0,1-9.36-2.32,7.5,7.5,0,0,0-15,0A20,20,0,0,0,129.71,339.52Z"/><path class="cls-1" d="M504.49,474.92H476.77V434.64c19.17-13.34,30.89-34,34.24-60.92a140.74,140.74,0,0,0-2.65-48.4,12,12,0,0,0-11.57-9,12.15,12.15,0,0,0-1.39.08,12,12,0,0,0-10.56,11.63c-.38,16.52-8.18,30-17.21,40.18a213.41,213.41,0,0,0-43.51-82.1,7.5,7.5,0,0,0-11.41,9.74c31.09,36.45,47.55,81.81,49,134.93l.1,15v29.12H432a7.5,7.5,0,0,0,0,15h72.5a7.5,7.5,0,0,0,0-15ZM471.73,385.4c9.86-9.21,19.91-21.8,24.9-37.67a122.7,122.7,0,0,1-.5,24.13c-2.29,18.32-9.18,33.14-20.24,44A257.62,257.62,0,0,0,471.73,385.4Z"/></svg>