<svg id="Capa_1" data-name="Capa 1" xmlns="http://www.w3.org/2000/svg" viewBox="0 0 512 512"><defs><style>.cls-1{fill:#003d6c;}</style></defs><path class="cls-1" d="M216.64,403.28H162.92a7.5,7.5,0,1,1,0-15h53.72a7.5,7.5,0,0,1,0,15Z"/><path class="cls-1" d="M289.74,512H38.44a7.5,7.5,0,0,1-7.5-7.5V38.56a7.5,7.5,0,0,1,7.5-7.5H162.69a7.5,7.5,0,0,1,0,15H45.94V497h243.8a7.5,7.5,0,0,1,0,15Z"/><path class="cls-1" d="M380.12,273.63a7.5,7.5,0,0,1-7.5-7.5V194.69a7.5,7.5,0,1,1,15,0v71.44A7.5,7.5,0,0,1,380.12,273.63Z"/><path class="cls-1" d="M380.12,169.5a7.5,7.5,0,0,1-7.5-7.5V46.06H255.87a7.5,7.5,0,1,1,0-15H380.12a7.5,7.5,0,0,1,7.5,7.5V162A7.5,7.5,0,0,1,380.12,169.5Z"/><path class="cls-1" d="M238.82,480.94H69.5a7.5,7.5,0,0,1-7.5-7.5V350.06a7.5,7.5,0,0,1,15,0V465.94H238.82a7.5,7.5,0,0,1,0,15Z"/><path class="cls-1" d="M69.5,324.88a7.5,7.5,0,0,1-7.5-7.5V69.63a7.5,7.5,0,0,1,7.5-7.5h62.12a7.5,7.5,0,1,1,0,15H77V317.38A7.5,7.5,0,0,1,69.5,324.88Z"/><path class="cls-1" d="M349.06,284.92a7.5,7.5,0,0,1-7.5-7.5V77.13H286.93a7.5,7.5,0,0,1,0-15h62.13a7.5,7.5,0,0,1,7.5,7.5V277.42A7.5,7.5,0,0,1,349.06,284.92Z"/><path class="cls-1" d="M277.61,279H162.92a7.5,7.5,0,1,1,0-15H277.61a7.5,7.5,0,0,1,0,15Z"/><path class="cls-1" d="M213.75,341.22H162.92a7.5,7.5,0,1,1,0-15h50.83a7.5,7.5,0,0,1,0,15Z"/><path class="cls-1" d="M271.93,108.19H227.15a7.5,7.5,0,0,1,0-15h44.78a7.5,7.5,0,0,0,7.5-7.5V54.1a8,8,0,0,0-8-8H255.87a23.05,23.05,0,0,1-23-23,8,8,0,0,0-8-8H193.75a8,8,0,0,0-8,8,23,23,0,0,1-23,23H147.15a8,8,0,0,0-8,8V85.69a7.51,7.51,0,0,0,7.5,7.5h47.84a7.5,7.5,0,0,1,0,15H146.62a22.53,22.53,0,0,1-22.5-22.5V54.1a23.06,23.06,0,0,1,23-23h15.54a8,8,0,0,0,8-8,23.05,23.05,0,0,1,23-23h31.06a23.05,23.05,0,0,1,23,23,8,8,0,0,0,8,8H271.4a23.06,23.06,0,0,1,23,23V85.69A22.52,22.52,0,0,1,271.93,108.19Z"/><path class="cls-1" d="M224.81,232.44H193.75a7.5,7.5,0,0,1-7.5-7.5V201.38H162.69a7.5,7.5,0,0,1-7.5-7.5V162.81a7.5,7.5,0,0,1,7.5-7.5h23.56V131.75a7.5,7.5,0,0,1,7.5-7.5h31.06a7.5,7.5,0,0,1,7.5,7.5v23.56h23.56a7.5,7.5,0,0,1,7.5,7.5v31.07a7.5,7.5,0,0,1-7.5,7.5H232.31v23.56A7.5,7.5,0,0,1,224.81,232.44Zm-23.56-15h16.06V193.88a7.5,7.5,0,0,1,7.5-7.5h23.56V170.31H224.81a7.5,7.5,0,0,1-7.5-7.5V139.25H201.25v23.56a7.5,7.5,0,0,1-7.5,7.5H170.19v16.07h23.56a7.5,7.5,0,0,1,7.5,7.5Z"/><path class="cls-1" d="M131.86,294.56H100.8a7.5,7.5,0,0,1-7.5-7.5V256a7.5,7.5,0,0,1,7.5-7.5h31.06a7.5,7.5,0,0,1,7.5,7.5v31.06A7.5,7.5,0,0,1,131.86,294.56Zm-23.56-15h16.06V263.5H108.3Z"/><path class="cls-1" d="M131.86,356.75H100.8a7.5,7.5,0,0,1-7.5-7.5V318.19a7.5,7.5,0,0,1,7.5-7.5h31.06a7.5,7.5,0,0,1,7.5,7.5v31.06A7.5,7.5,0,0,1,131.86,356.75Zm-23.56-15h16.06V325.69H108.3Z"/><path class="cls-1" d="M131.86,418.81H100.8a7.5,7.5,0,0,1-7.5-7.5V380.25a7.5,7.5,0,0,1,7.5-7.5h31.06a7.5,7.5,0,0,1,7.5,7.5v31.06A7.5,7.5,0,0,1,131.86,418.81Zm-23.56-15h16.06V387.75H108.3Z"/><path class="cls-1" d="M389.43,512H289.75c-23.17,0-43.2-11.05-54.94-30.3-11-18-13.49-42.82-6.81-63.66a70.25,70.25,0,0,1-20.34-22.47,69.1,69.1,0,0,1-9.42-38.4c1.17-18.38,10.43-33.88,25.4-42.53a50,50,0,0,1,20.67-6.46,69.63,69.63,0,0,1,2.57-10c6.45-19.13,20.49-32.87,38.53-37.7a52.88,52.88,0,0,1,13.71-1.81c14.57,0,28.94,6.14,40.47,17.08,11.52-10.94,25.9-17.08,40.46-17.08a52.77,52.77,0,0,1,13.71,1.81c18,4.83,32.08,18.57,38.53,37.7a69.63,69.63,0,0,1,2.57,10,50,50,0,0,1,20.67,6.46h0c26.37,15.23,33.39,50.78,16,80.93a70.26,70.26,0,0,1-20.42,22.53c5.48,17.57,6.44,42.9-7.06,64.42C432.28,501.25,412.38,512,389.43,512ZM248.62,323a35,35,0,0,0-17.48,4.63c-10.55,6.09-17.09,17.21-17.93,30.49A56,56,0,0,0,240.8,408.4a7.5,7.5,0,0,1,3.24,9.48c-7.52,17.67-6.09,40.18,3.57,56,9,14.69,24.32,23.11,42.14,23.11h99.68c17.68,0,32.95-8.18,41.89-22.45,12.1-19.28,9.58-42.61,3.75-56.72a7.49,7.49,0,0,1,3.27-9.41,54.09,54.09,0,0,0,20.18-20.35c13.2-22.87,8.6-49.42-10.49-60.44a35.3,35.3,0,0,0-19.37-4.58,7.5,7.5,0,0,1-7.85-6.84,57.32,57.32,0,0,0-2.73-13.28c-4.82-14.29-15.1-24.49-28.2-28a37.85,37.85,0,0,0-9.83-1.3c-12.64,0-25.28,6.5-34.69,17.84a7.5,7.5,0,0,1-11.54,0c-9.42-11.34-22.06-17.84-34.7-17.84a37.91,37.91,0,0,0-9.83,1.3c-13.1,3.51-23.38,13.71-28.2,28a56.8,56.8,0,0,0-2.72,13.28,7.51,7.51,0,0,1-7.86,6.84C249.88,323,249.25,323,248.62,323Z"/><path class="cls-1" d="M307.87,366.15c-13.51,0-26.72-12.42-31.65-30.8-5.61-21,2-40.58,17.28-44.68s31.68,9.1,37.3,30.05c2.53,9.46,2.42,19.13-.3,27.22-3.05,9-9.24,15.39-17,17.47A21.87,21.87,0,0,1,307.87,366.15Zm-8.8-61.21a6.32,6.32,0,0,0-1.69.22h0c-6.05,1.62-10.28,12.82-6.67,26.31s12.88,21.08,18.93,19.45c3.85-1,5.81-5.32,6.64-7.78,1.77-5.24,1.78-12,0-18.53C313,312.33,305,304.94,299.07,304.94Zm-3.63-7h0Z"/><path class="cls-1" d="M371.27,366.16a21.94,21.94,0,0,1-5.65-.75c-15.3-4.1-22.89-23.72-17.27-44.68h0c5.61-21,22-34.16,37.29-30.06,7.75,2.08,13.93,8.45,17,17.47,2.73,8.09,2.83,17.76.3,27.21C398,353.74,384.78,366.16,371.27,366.16Zm-8.44-41.55c-3.61,13.49.62,24.69,6.67,26.31s15.32-6,18.93-19.45c1.75-6.54,1.74-13.29,0-18.53-.83-2.47-2.79-6.75-6.64-7.78-6-1.62-15.31,6-18.93,19.45Z"/><path class="cls-1" d="M260.76,397.54c-9.4,0-19.59-6.54-26-17.63a37.56,37.56,0,0,1-5.29-20.76c.49-7.75,4.07-14.09,9.81-17.41,11.17-6.45,26.68.21,35.32,15.17s6.65,31.72-4.52,38.17A18.41,18.41,0,0,1,260.76,397.54ZM248.63,354.3a3.75,3.75,0,0,0-1.85.43h0c-1.87,1.08-2.26,4.12-2.34,5.37a22.83,22.83,0,0,0,3.31,12.31c4.83,8.35,12,11.31,14.83,9.68s3.85-9.33-1-17.68C257.63,357.52,252.05,354.3,248.63,354.3Zm-5.6-6.06h0Z"/><path class="cls-1" d="M418.4,397.56a18.39,18.39,0,0,1-9.32-2.46c-11.17-6.45-13.16-23.21-4.52-38.17h0c8.63-14.95,24.14-21.62,35.31-15.17S453,365,444.39,379.93C438,391,427.79,397.56,418.4,397.56Zm-.85-33.13c-4.83,8.35-3.8,16.05-1,17.68s10-1.33,14.82-9.68,3.8-16.05,1-17.68-10,1.33-14.82,9.68Z"/><path class="cls-1" d="M389.43,480.7h-.27A50,50,0,0,1,358.25,469a31.37,31.37,0,0,0-37.31,0A50,50,0,0,1,290,480.69h-.27c-12.18,0-22.21-5.43-28.22-15.3-8.47-13.87-7.11-32.37-1.4-43.47l.09-.16A97.43,97.43,0,0,1,292,387c29.37-19.26,65.85-19.26,95.21,0l.06,0A97.4,97.4,0,0,1,419,421.76c.06.11.11.22.16.33,5.6,11.57,6.84,30.33-1.61,43.8C411.52,475.44,401.55,480.7,389.43,480.7Zm-49.84-32.9a46.77,46.77,0,0,1,27.74,9.27q.23.17.45.36a35.14,35.14,0,0,0,21.78,8.27c7,0,12-2.58,15.25-7.78,5.26-8.39,4.58-21.35.89-29.14A82.31,82.31,0,0,0,379,399.5l-.06,0a70.85,70.85,0,0,0-78.7,0,82.4,82.4,0,0,0-26.78,29.38c-3.64,7.16-4.33,20.14.9,28.72,3.31,5.42,8.31,8.08,15.28,8.11a35.1,35.1,0,0,0,21.79-8.28l.46-.36A46.8,46.8,0,0,1,339.59,447.8Z"/><path class="cls-1" d="M209.28,46.07a7.33,7.33,0,0,1-1.47-.15,7.59,7.59,0,0,1-2.69-1.12,6.43,6.43,0,0,1-1.14-.93,7.91,7.91,0,0,1-.94-1.14,7.69,7.69,0,0,1-.69-1.3,7.53,7.53,0,0,1-.42-1.4,7.23,7.23,0,0,1,0-2.93,7.53,7.53,0,0,1,.42-1.4,7.69,7.69,0,0,1,.69-1.3,7.91,7.91,0,0,1,.94-1.14,6.9,6.9,0,0,1,1.14-.93,7.45,7.45,0,0,1,5.62-1.12,7.9,7.9,0,0,1,1.41.43,7.6,7.6,0,0,1,1.29.69,7.34,7.34,0,0,1,1.14.93,7.24,7.24,0,0,1,.93,1.14,7,7,0,0,1,.69,1.3,7.56,7.56,0,0,1,.43,1.4,7.23,7.23,0,0,1,0,2.93,7.56,7.56,0,0,1-.43,1.4,7,7,0,0,1-.69,1.3,7.24,7.24,0,0,1-.93,1.14,6.81,6.81,0,0,1-1.14.93,7.6,7.6,0,0,1-1.29.69,7.9,7.9,0,0,1-1.41.43A7.16,7.16,0,0,1,209.28,46.07Z"/></svg>