<svg id="Capa_1" data-name="Capa 1" xmlns="http://www.w3.org/2000/svg" viewBox="0 0 512 512"><defs><style>.cls-1{fill:#003d6c;}</style></defs><g id="g2647"><g id="g2653"><g id="path2655"><path class="cls-1" d="M447.21,136.85H369.36a51.56,51.56,0,0,1-51.5-51.5V7.5a7.5,7.5,0,0,1,15,0V85.35a36.54,36.54,0,0,0,36.5,36.5h77.85a7.5,7.5,0,0,1,0,15Z"/></g></g><g id="g2657"><g id="path2659"><path class="cls-1" d="M403.21,512H57.86a51.55,51.55,0,0,1-51.5-51.5V97.14a7.5,7.5,0,0,1,15,0V460.5A36.54,36.54,0,0,0,57.86,497H403.21a36.19,36.19,0,0,0,4-.22,7.5,7.5,0,0,1,1.6,14.92A53,53,0,0,1,403.21,512Z"/></g></g><g id="g2661"><g id="path2663"><path class="cls-1" d="M447.21,351.71a7.5,7.5,0,0,1-7.5-7.5V132.46L322.25,15H57.86a36.54,36.54,0,0,0-36.5,36.5V67.14a7.5,7.5,0,0,1-15,0V51.5A51.55,51.55,0,0,1,57.86,0h267.5a7.47,7.47,0,0,1,5.3,2.2L452.51,124.05a7.47,7.47,0,0,1,2.2,5.3V344.21A7.5,7.5,0,0,1,447.21,351.71Z"/></g></g><g id="g2665"><g id="path2667"><path class="cls-1" d="M126.7,155.48a35.44,35.44,0,1,1,35.43-35.43A35.47,35.47,0,0,1,126.7,155.48Zm0-55.87a20.44,20.44,0,1,0,20.43,20.44A20.46,20.46,0,0,0,126.7,99.61Z"/></g></g><g id="g2669"><g id="path2671"><path class="cls-1" d="M126.7,80.53a20.6,20.6,0,1,1,20.6-20.6A20.62,20.62,0,0,1,126.7,80.53Zm0-26.2a5.6,5.6,0,1,0,5.6,5.6A5.61,5.61,0,0,0,126.7,54.33Z"/></g></g><g id="g2673"><g id="path2675"><path class="cls-1" d="M77.84,105.82a20.61,20.61,0,1,1,20.61-20.6A20.62,20.62,0,0,1,77.84,105.82Zm0-26.21a5.61,5.61,0,1,0,5.61,5.61A5.61,5.61,0,0,0,77.84,79.61Z"/></g></g><g id="g2677"><g id="path2679"><path class="cls-1" d="M175.55,105.82a20.61,20.61,0,1,1,20.6-20.6A20.63,20.63,0,0,1,175.55,105.82Zm0-26.21a5.61,5.61,0,1,0,5.6,5.61A5.62,5.62,0,0,0,175.55,79.61Z"/></g></g><g id="g2681"><g id="path2683"><path class="cls-1" d="M373.5,209.24H164.22a7.5,7.5,0,0,1,0-15H373.5a7.5,7.5,0,0,1,0,15Z"/></g></g><g id="g2685"><g id="path2687"><path class="cls-1" d="M296.81,237.6H164.22a7.5,7.5,0,0,1,0-15H296.81a7.5,7.5,0,0,1,0,15Z"/></g></g><g id="g2689"><g id="path2691"><path class="cls-1" d="M107.86,250.94c-7.07,0-11.49-.82-18.14-5.17a7.5,7.5,0,0,1,8.21-12.55c3.88,2.54,5.24,2.76,10.49,2.72a7.86,7.86,0,0,0,7.79-6.62c.37-2.23,0-5.19-4.16-6.65-6.49-2.29-13.14-4.92-17.83-8.6-4.93-3.87-7.2-10.52-5.91-17.34a19.53,19.53,0,0,1,13.43-15.3,24.67,24.67,0,0,1,22.73,4.15,7.5,7.5,0,1,1-9.59,11.53,9.56,9.56,0,0,0-8.82-1.31,4.67,4.67,0,0,0-3,3.71,3.22,3.22,0,0,0,.43,2.76c3,2.35,8.54,4.48,13.57,6.26,10.08,3.56,15.69,12.92,14,23.27a22.94,22.94,0,0,1-22.48,19.14Z"/></g></g><g id="g2693"><g id="path2695"><path class="cls-1" d="M108.47,259a7.5,7.5,0,0,1-7.5-7.5v-8.1a7.5,7.5,0,0,1,15,0v8.1A7.5,7.5,0,0,1,108.47,259Z"/></g></g><g id="g2697"><g id="path2699"><path class="cls-1" d="M108.47,195.32a7.5,7.5,0,0,1-7.5-7.5v-7.51a7.5,7.5,0,0,1,15,0v7.51A7.5,7.5,0,0,1,108.47,195.32Z"/></g></g><g id="g2701"><g id="path2703"><path class="cls-1" d="M373.5,307.39H164.22a7.5,7.5,0,0,1,0-15H373.5a7.5,7.5,0,0,1,0,15Z"/></g></g><g id="g2705"><g id="path2707"><path class="cls-1" d="M296.81,335.76H164.22a7.5,7.5,0,0,1,0-15H296.81a7.5,7.5,0,0,1,0,15Z"/></g></g><g id="g2709"><g id="path2711"><path class="cls-1" d="M107.86,349.1c-7.08,0-11.49-.82-18.14-5.17a7.5,7.5,0,0,1,8.21-12.55c3.88,2.53,5.25,2.75,10.49,2.71a7.85,7.85,0,0,0,7.79-6.62c.37-2.23,0-5.19-4.16-6.64-6.49-2.29-13.14-4.92-17.83-8.61-4.93-3.86-7.2-10.51-5.91-17.33a19.53,19.53,0,0,1,13.43-15.3,24.6,24.6,0,0,1,22.73,4.15,7.5,7.5,0,1,1-9.59,11.53,9.58,9.58,0,0,0-8.82-1.32,4.69,4.69,0,0,0-3,3.71,3.21,3.21,0,0,0,.43,2.76c3,2.35,8.54,4.49,13.57,6.27,10.08,3.56,15.69,12.91,14,23.27a22.93,22.93,0,0,1-22.48,19.13Z"/></g></g><g id="g2713"><g id="path2715"><path class="cls-1" d="M108.47,357.19a7.5,7.5,0,0,1-7.5-7.5v-8.1a7.5,7.5,0,0,1,15,0v8.1A7.5,7.5,0,0,1,108.47,357.19Z"/></g></g><g id="g2717"><g id="path2719"><path class="cls-1" d="M108.47,293.48A7.5,7.5,0,0,1,101,286v-7.51a7.5,7.5,0,0,1,15,0V286A7.5,7.5,0,0,1,108.47,293.48Z"/></g></g><g id="g2721"><g id="path2723"><path class="cls-1" d="M334.5,405.55H164.21a7.5,7.5,0,1,1,0-15H334.5a7.5,7.5,0,0,1,0,15Z"/></g></g><g id="g2725"><g id="path2727"><path class="cls-1" d="M296.81,433.91H164.22a7.5,7.5,0,1,1,0-15H296.81a7.5,7.5,0,0,1,0,15Z"/></g></g><g id="g2729"><g id="path2731"><path class="cls-1" d="M107.86,447.25c-7.08,0-11.5-.82-18.14-5.17a7.5,7.5,0,0,1,8.21-12.55c3.88,2.54,5.25,2.76,10.49,2.72a7.85,7.85,0,0,0,7.79-6.62c.37-2.23,0-5.19-4.16-6.65-6.49-2.29-13.14-4.92-17.83-8.6-4.93-3.87-7.2-10.51-5.91-17.34a19.5,19.5,0,0,1,13.43-15.29,24.64,24.64,0,0,1,22.73,4.14,7.5,7.5,0,1,1-9.59,11.53,9.6,9.6,0,0,0-8.82-1.31,4.67,4.67,0,0,0-3,3.71,3.21,3.21,0,0,0,.43,2.76c3,2.35,8.54,4.48,13.57,6.26,10.08,3.57,15.69,12.92,14,23.28a22.93,22.93,0,0,1-22.48,19.13Z"/></g></g><g id="g2733"><g id="path2735"><path class="cls-1" d="M108.47,455.34a7.5,7.5,0,0,1-7.5-7.5v-8.09a7.5,7.5,0,0,1,15,0v8.09A7.5,7.5,0,0,1,108.47,455.34Z"/></g></g><g id="g2737"><g id="path2739"><path class="cls-1" d="M108.47,391.63a7.5,7.5,0,0,1-7.5-7.5v-7.51a7.5,7.5,0,0,1,15,0v7.51A7.5,7.5,0,0,1,108.47,391.63Z"/></g></g><g id="g2741"><g id="path2743"><path class="cls-1" d="M413.45,463.42c-8.68,0-13.8-1-21.83-6.22a7.5,7.5,0,1,1,8.21-12.55c5.31,3.47,7.44,3.8,14.39,3.76A11.91,11.91,0,0,0,426,438.36c.39-2.35.55-8.11-6.57-10.62-11-3.9-17.39-7-22-10.58-5.66-4.44-8.25-12.11-6.76-20a22.77,22.77,0,0,1,15.62-17.83,29.27,29.27,0,0,1,26.94,4.88,7.5,7.5,0,0,1-9.6,11.53,14.17,14.17,0,0,0-13-2c-4,1.19-5,5.08-5.2,6.24-.43,2.31.08,4.49,1.27,5.43,4,3.16,11.24,5.94,17.76,8.25,11.82,4.18,18.4,15.13,16.36,27.25a27,27,0,0,1-26.51,22.56Z"/></g></g><g id="g2745"><g id="path2747"><path class="cls-1" d="M414.27,473.66a7.5,7.5,0,0,1-7.5-7.5V455.91a7.5,7.5,0,0,1,15,0v10.25A7.5,7.5,0,0,1,414.27,473.66Z"/></g></g><g id="g2749"><g id="path2751"><path class="cls-1" d="M414.27,393a7.5,7.5,0,0,1-7.5-7.5V376a7.5,7.5,0,0,1,15,0v9.51A7.5,7.5,0,0,1,414.27,393Z"/></g></g><g id="g2753"><g id="path2755"><path class="cls-1" d="M414.71,512A90.93,90.93,0,0,1,350.2,357a7.5,7.5,0,1,1,10.64,10.58,75.56,75.56,0,1,0,22.4-15.63A7.5,7.5,0,1,1,377,338.29,90.94,90.94,0,1,1,414.71,512Z"/></g></g></g></svg>