<svg id="Capa_1" data-name="Capa 1" xmlns="http://www.w3.org/2000/svg" viewBox="0 0 512 512"><defs><style>.cls-1{fill:#003d6c;}</style></defs><g id="Page-1"><g id="_044---Mobile-Vetenarian" data-name="044---Mobile-Vetenarian"><path id="Shape" class="cls-1" d="M503.47,343.7V264.34A34.14,34.14,0,0,0,482.78,233l-42.08-18L358.44,102.75A42.78,42.78,0,0,0,324,85.33H34.13a25.6,25.6,0,0,0-25.6,25.6V343.7A17,17,0,0,0,0,358.4v17.06a17.07,17.07,0,0,0,17.07,17.07H54.19a51.11,51.11,0,0,0,96.42,0H378.45a51.12,51.12,0,0,0,96.43,0h20.05A17.07,17.07,0,0,0,512,375.46V358.4a17,17,0,0,0-8.53-14.7ZM460.8,242.16l15.26,6.53a17.07,17.07,0,0,1,10.34,15.66v8.71H469.33a8.53,8.53,0,0,1-8.53-8.53ZM324.27,102.4a25.62,25.62,0,0,1,20.41,10.44l73.68,100.49h-77a17.06,17.06,0,0,1-17.06-17.07ZM51.2,375.46H17.07V358.4H54.19A50.89,50.89,0,0,0,51.2,375.46Zm51.2,34.14a34.14,34.14,0,1,1,34.13-34.14A34.14,34.14,0,0,1,102.4,409.6Zm273.07-34.14H153.6a50.6,50.6,0,0,0-3-17.06H378.45A50.88,50.88,0,0,0,375.47,375.46Zm51.2,34.14a34.14,34.14,0,1,1,34.13-34.14A34.15,34.15,0,0,1,426.67,409.6Zm38.05-68.27a51,51,0,0,0-76.11,0H140.46a51,51,0,0,0-76.12,0H25.6V110.93a8.53,8.53,0,0,1,8.53-8.53H307.2v93.86a34.13,34.13,0,0,0,34.13,34.14h92.16l10.24,4.4v29.73a25.6,25.6,0,0,0,25.6,25.6H486.4v51.2Zm30.21,34.13H477.87a51.09,51.09,0,0,0-3-17.06h20.05Z"/><path id="Shape-2" data-name="Shape" class="cls-1" d="M120.23,184.52a21.58,21.58,0,0,0,11.1,3.22,19.45,19.45,0,0,0,5-.65c13.46-3.59,20.48-21,16-39.74a39.35,39.35,0,0,0-16.47-24.68,20.57,20.57,0,0,0-16-2.56c-13.46,3.59-20.48,21-16,39.74a39.34,39.34,0,0,0,16.43,24.67Zm3.89-47.92a2,2,0,0,1,.54-.07,5,5,0,0,1,2.38.8,22.66,22.66,0,0,1,8.64,14c2.56,10.64-1,18.51-3.76,19.25a4.38,4.38,0,0,1-2.92-.73,22.64,22.64,0,0,1-8.68-14c-2.56-10.63,1-18.47,3.8-19.25Z"/><path id="Shape-3" data-name="Shape" class="cls-1" d="M98.53,218.4c11.34-8,12-26.75,1.56-42.8a39.33,39.33,0,0,0-23.73-17.68,20.79,20.79,0,0,0-16.13,3c-11.34,7.95-12,26.75-1.56,42.8a39.3,39.3,0,0,0,23.72,17.69,24.45,24.45,0,0,0,4.75.48,19.74,19.74,0,0,0,11.29-3.41Zm-9.78-14a4.37,4.37,0,0,1-3,.26,22.55,22.55,0,0,1-12.8-10.24c-5.75-8.92-5.56-17.66-2.94-19.48a3,3,0,0,1,1.71-.43,7,7,0,0,1,1.37.14,22.62,22.62,0,0,1,12.8,10.24C91.56,193.76,91.4,202.45,88.75,204.39Z"/><path id="Shape-4" data-name="Shape" class="cls-1" d="M263.94,160.84a20.52,20.52,0,0,0-16-2.93,39.34,39.34,0,0,0-23.72,17.69c-10.47,16.05-9.78,34.84,1.56,42.8l.09.07a19.83,19.83,0,0,0,11.29,3.41,24.57,24.57,0,0,0,4.76-.49A39.26,39.26,0,0,0,265.6,203.7c10.47-16,9.78-34.85-1.66-42.86Zm-12.63,33.54a22.59,22.59,0,0,1-12.8,10.24,4.4,4.4,0,0,1-3-.27c-2.63-1.93-2.79-10.62,3-19.45a22.53,22.53,0,0,1,12.8-10.29,4.46,4.46,0,0,1,3,.23c2.67,1.91,2.87,10.65-2.93,19.54Z"/><path id="Shape-5" data-name="Shape" class="cls-1" d="M188,187.09a19.5,19.5,0,0,0,5,.65,21.58,21.58,0,0,0,11.1-3.22,39.35,39.35,0,0,0,16.47-24.68c4.51-18.69-2.5-36.14-16-39.74a20.62,20.62,0,0,0-16,2.56,39.27,39.27,0,0,0-16.47,24.68c-4.55,18.71,2.46,36.12,15.92,39.75Zm.63-35.75a22.67,22.67,0,0,1,8.61-14,5,5,0,0,1,2.37-.8,2,2,0,0,1,.55.07c2.78.74,6.32,8.62,3.76,19.25a22.63,22.63,0,0,1-8.61,14,4.26,4.26,0,0,1-2.92.73c-2.78-.74-6.35-8.61-3.79-19.25Z"/><path id="Shape-6" data-name="Shape" class="cls-1" d="M211.93,233.6a48.52,48.52,0,0,1-16.12-17.38,38.4,38.4,0,0,0-67.36,0,48.43,48.43,0,0,1-16.12,17.38,40.24,40.24,0,0,0-18.46,36.5,38.45,38.45,0,0,0,38.4,37.1H192a38.45,38.45,0,0,0,38.4-37.1A40.24,40.24,0,0,0,211.93,233.6ZM192,290.13H132.27a21.28,21.28,0,0,1-21.34-20.48,23.48,23.48,0,0,1,10.76-21.82,65.3,65.3,0,0,0,21.72-23.41,21.34,21.34,0,0,1,37.45,0,65.38,65.38,0,0,0,21.7,23.43,23.45,23.45,0,0,1,10.77,21.8A21.27,21.27,0,0,1,192,290.13Z"/></g></g></svg>