<?xml version="1.0" encoding="utf-8"?>
<!-- Generator: Adobe Illustrator 25.4.1, SVG Export Plug-In . SVG Version: 6.00 Build 0)  -->
<svg version="1.1" id="Capa_1" xmlns="http://www.w3.org/2000/svg" xmlns:xlink="http://www.w3.org/1999/xlink" x="0px" y="0px"
	 viewBox="0 0 150 150" style="enable-background:new 0 0 150 150;" xml:space="preserve">
<style type="text/css">
	.st0{fill:#003D6C;}
</style>
<g>
	<path class="st0" d="M50.3,39.8c1.4,0,2.8,0.5,4.2,0.5c0.9,0,1.4,1.4,1.9,2.3c1.9,4.7,4.2,9.4,6.1,14.5c0.9,2.8-0.9,5.2-4.7,9.4
		c-1.3,1-1.5,2.9-0.5,4.2l0,0c6.1,10.3,14.5,17.8,25.8,22c0.5,0,0.9,0.5,1.4,0.5c1,0,1.9-0.5,2.3-1.4c4.7-5.6,6.1-8.4,8-8.4
		c0.5-0.1,1,0.1,1.4,0.5c15,7,15.9,7.5,16.4,9.4c0.5,12.2-10.3,16.9-17.3,16.9h-0.9C79.8,109.7,56.9,98,40.9,70.8
		c-4.7-9.8-4.2-21.1,4.2-28.6C46.4,40.7,48.3,39.8,50.3,39.8z"/>
	<path class="st0" d="M148.7,60.5c7,41.2-20.1,80.2-60.9,87.2c-4.3,0.8-8.7,1.1-13.1,0.9c-11.7,0-22.5-2.8-33.3-8h-4.2
		c-19.7,5.1-32.8,8.4-37,9.4c0.9-3.3,1.4-6.1,2.3-8.9c2.3-8.9,5.2-17.8,7.5-27.2c0.5-1.4,0.5-3.3-0.5-4.2
		C-9.6,72.9,4.6,27.6,41.3,8.5C47,5.5,53,3.3,59.2,1.9C65,0.6,71-0.1,77,0C113.1,0,143.1,26.7,148.7,60.5z M85,135.9
		c33.8-5.6,57.2-37,52.5-70.8c-4.4-30.3-30.3-52.9-60.9-53c-3.8,0.1-7.5,0.4-11.2,0.9c-42.2,8-64.7,54.4-44.1,91.4
		c2.4,4.2,2.8,7.5,1.4,11.7c-1.9,5.2-2.8,10.8-4.6,16.4c7.5-1.9,14.1-3.8,21.1-5.6c0.5,0,1.4-0.5,1.9-0.5c1.1,0.1,2.3,0.4,3.3,0.9
		c9.4,5.5,20.1,8.4,30.9,8.4C78,136.9,81.7,136.4,85,135.9"/>
</g>
</svg>
