<?xml version="1.0" encoding="utf-8"?>
<!-- Generator: Adobe Illustrator 25.4.1, SVG Export Plug-In . SVG Version: 6.00 Build 0)  -->
<svg version="1.1" id="Capa_1" xmlns="http://www.w3.org/2000/svg" xmlns:xlink="http://www.w3.org/1999/xlink" x="0px" y="0px"
	 viewBox="0 0 150 150" style="enable-background:new 0 0 150 150;" xml:space="preserve">
<style type="text/css">
	.st0{fill:#003D6C;}
</style>
<g>
	<g>
		<g>
			<path class="st0" d="M112.5,0h-75C16.9,0,0,16.9,0,37.5v75C0,133.1,16.9,150,37.5,150h75c20.6,0,37.5-16.9,37.5-37.5v-75
				C150,16.9,133.1,0,112.5,0z M137.5,112.5c0,13.8-11.2,25-25,25h-75c-13.8,0-25-11.2-25-25v-75c0-13.8,11.2-25,25-25h75
				c13.8,0,25,11.2,25,25V112.5L137.5,112.5z"/>
		</g>
	</g>
	<g>
		<g>
			<circle class="st0" cx="115.6" cy="34.4" r="9.4"/>
		</g>
	</g>
	<g>
		<g>
			<path class="st0" d="M75,37.5c-20.7,0-37.5,16.8-37.5,37.5s16.8,37.5,37.5,37.5s37.5-16.8,37.5-37.5S95.7,37.5,75,37.5z M75,100
				c-13.8,0-25-11.2-25-25s11.2-25,25-25s25,11.2,25,25S88.8,100,75,100z"/>
		</g>
	</g>
</g>
</svg>
