<?xml version="1.0" encoding="utf-8"?>
<!-- Generator: Adobe Illustrator 24.2.1, SVG Export Plug-In . SVG Version: 6.00 Build 0)  -->
<svg version="1.1" id="Capa_1" xmlns="http://www.w3.org/2000/svg" xmlns:xlink="http://www.w3.org/1999/xlink" x="0px" y="0px"
	 viewBox="0 0 31 31" style="enable-background:new 0 0 31 31;" xml:space="preserve">
<style type="text/css">
	.st0{fill:#FFFFFF;}
	.st1{fill-rule:evenodd;clip-rule:evenodd;fill:#FFFFFF;}
	.st2{fill:#B52372;}
	.st3{fill:#0099A8;}
</style>
<path class="st1" d="M26.4,4.5C23.5,1.6,19.7,0,15.6,0C7.1,0,0.2,6.9,0.2,15.4c0,2.7,0.7,5.4,2.1,7.7l-2.2,8l8.1-2.1
	c2.2,1.2,4.8,1.9,7.3,1.9h0c8.5,0,15.4-6.9,15.4-15.4C30.9,11.3,29.3,7.4,26.4,4.5z M15.6,28.1L15.6,28.1c-2.3,0-4.5-0.6-6.5-1.8
	l-0.5-0.3l-4.8,1.3l1.3-4.7l-0.3-0.5c-1.3-2-2-4.4-2-6.8c0-7,5.7-12.8,12.8-12.8c3.4,0,6.6,1.3,9,3.7s3.7,5.6,3.7,9
	C28.3,22.4,22.6,28.1,15.6,28.1z M22.6,18.6c-0.4-0.2-2.3-1.1-2.6-1.2c-0.4-0.1-0.6-0.2-0.9,0.2c-0.3,0.4-1,1.2-1.2,1.5
	c-0.2,0.3-0.4,0.3-0.8,0.1c-0.4-0.2-1.6-0.6-3.1-1.9c-1.1-1-1.9-2.3-2.1-2.7c-0.2-0.4,0-0.6,0.2-0.8c0.4-0.5,0.8-1.1,1-1.3
	c0.1-0.3,0.1-0.5,0-0.7c-0.1-0.2-0.9-2.1-1.2-2.9c-0.3-0.7-0.6-0.6-0.9-0.7c-0.2,0-0.5,0-0.7,0c-0.3,0-0.7,0.1-1,0.5
	c-0.4,0.4-1.3,1.3-1.3,3.2s1.4,3.7,1.6,4c0.2,0.3,2.7,4.1,6.6,5.8c0.9,0.4,1.6,0.6,2.2,0.8c0.9,0.3,1.8,0.3,2.4,0.2
	c0.7-0.1,2.3-0.9,2.6-1.8c0.3-0.9,0.3-1.7,0.2-1.8C23.2,18.9,23,18.8,22.6,18.6z"/>
</svg>
